PathFileType	3	(X/Y/Z)	C:\Users\koon_\Desktop\
DataRate	CameraRate	NumFrames	NumMarkers	Units	OrigDataRate	OrigDataStartFrame	OrigNumFrames
100.0	100.0	4	27	mm	100.0	376	3007	
Frame#	Time	get:LFHD			get:RFHD			get:LBHD			get:RBHD			get:C7			get:T10			get:CLAV			get:STRN			get:RBAK			get:LSHO			get:LUPA			get:LELB			get:LFRA			get:LWRA			get:LWRB			get:LFIN			get:RSHO			get:RUPA			get:RELB			get:RFRA			get:RWRA			get:RWRB			get:RFIN			get:LASI			get:RASI			get:LPSI			get:RPSI			
		X1	Y1	Z1	X2	Y2	Z2	X3	Y3	Z3	X4	Y4	Z4	X5	Y5	Z5	X6	Y6	Z6	X7	Y7	Z7	X8	Y8	Z8	X9	Y9	Z9	X10	Y10	Z10	X11	Y11	Z11	X12	Y12	Z12	X13	Y13	Z13	X14	Y14	Z14	X15	Y15	Z15	X16	Y16	Z16	X17	Y17	Z17	X18	Y18	Z18	X19	Y19	Z19	X20	Y20	Z20	X21	Y21	Z21	X22	Y22	Z22	X23	Y23	Z23	X24	Y24	Z24	X25	Y25	Z25	X26	Y26	Z26	X27	Y27	Z27	
376	3.75	84.978966	1569.2478	-44.167137	-71.892601	1559.286	-45.221336	80.77536	1564.0851	-169.33746	-45.204502	1567.5013	-189.65793	15.141489	1378.0651	-211.47983	18.411703	1119.1278	-256.30008	15.131638	1294.1177	-34.603218	26.749739	1105.8435	4.3324809	-69.85778	1310.8501	-246.4252	180.52309	1363.8083	-123.76914	245.1826	1219.5752	-128.69751	278.13501	1046.2357	-179.63893	277.8085	947.19562	-103.9344	275.98642	850.38989	-92.096382	328.97253	857.29742	-137.70451	342.39984	778.12952	-92.569252	-139.26872	1357.7699	-128.30516	-227.95108	1145.1115	-114.72053	-258.57837	1048.8804	-170.93033	-248.8176	974.76093	-95.7901	-247.94283	818.50275	-90.5252	-306.98502	833.776	-133.38254	-303.59592	762.54828	-75.061272	151.29869	928.9726	-60.524124	-126.35229	921.11993	-57.691788	64.965096	961.69824	-260.08215	-44.946232	954.81976	-259.77609
377	3.76	84.954155	1569.2302	-43.94965	-71.930511	1559.1938	-45.063663	80.775757	1564.1292	-169.16327	-45.195194	1567.4976	-189.50497	15.211777	1378.1157	-211.43225	18.447668	1119.0808	-256.18787	15.247974	1294.0326	-34.442093	26.839167	1105.7609	4.3989158	-69.823364	1310.799	-246.26688	180.63817	1363.7081	-123.75749	244.99606	1219.3427	-128.76416	277.6431	1045.8011	-179.62196	277.09805	947.12311	-103.45295	275.22949	850.59985	-90.826996	327.70224	856.76349	-137.02744	341.41928	778.28711	-91.338448	-139.20317	1357.7418	-128.29741	-228.01158	1144.9508	-114.91113	-258.04819	1048.5569	-171.21738	-249.23969	974.83722	-95.675613	-249.05615	818.86951	-88.955261	-306.45972	833.4563	-134.16528	-304.91312	762.64185	-75.160156	151.41742	928.99646	-60.599628	-126.23678	921.12817	-57.503929	64.934258	961.71344	-260.08264	-44.956203	954.8111	-259.69315
378	3.77	84.921318	1569.1886	-43.772728	-71.927139	1559.1117	-44.959862	80.816177	1564.1836	-168.96719	-45.233421	1567.2484	-189.18044	15.264182	1378.1409	-211.45627	18.46026	1119.0811	-256.22433	15.376843	1293.9899	-34.546333	26.984255	1105.7028	4.3640189	-69.723824	1310.8302	-246.29959	180.75146	1363.6581	-123.77502	244.86388	1219.113	-128.84473	277.09076	1045.3944	-179.5625	276.39761	947.02698	-103.09205	274.49835	850.84137	-89.612465	326.2981	856.17725	-136.39816	340.35733	778.44275	-90.175995	-139.14229	1357.7164	-128.2197	-228.03458	1144.7916	-115.03057	-257.47272	1048.2351	-171.50529	-249.6877	974.91925	-95.670395	-250.03593	819.26813	-87.371933	-305.80676	833.18524	-135.10718	-306.13779	762.74243	-75.400826	151.50603	929.0376	-60.601566	-126.13824	921.16241	-57.304214	64.908936	961.70642	-260.05893	-44.963005	954.83832	-259.60901
379	3.78	84.936066	1569.1442	-43.583321	-71.899559	1559.0353	-44.881424	80.878876	1564.2539	-168.77505	-45.082516	1567.5122	-189.25433	15.334042	1378.1243	-211.34735	18.471525	1118.9817	-256.02585	15.483421	1293.9779	-34.530392	27.13641	1105.6547	4.3432593	-69.612976	1310.8201	-246.24028	180.94083	1363.6019	-123.78546	244.72733	1218.9169	-128.99478	276.54703	1045.0027	-179.56464	275.66766	946.94379	-102.81824	273.69437	851.18237	-88.356689	324.66077	855.54327	-135.9998	339.19373	778.45636	-89.107101	-139.07951	1357.7185	-128.20471	-228.05298	1144.6995	-115.1797	-256.88956	1048.08	-171.97375	-250.07773	975.05927	-95.703537	-250.99203	819.67017	-85.816154	-305.0134	832.90924	-135.98462	-307.26898	762.89789	-75.681999	151.63206	928.98962	-60.670742	-126.01016	921.16864	-57.185589	64.861633	961.7052	-260.07874	-45.079033	954.85852	-259.3905
